<svg xmlns="http://www.w3.org/2000/svg" xmlns:xlink="http://www.w3.org/1999/xlink" width="240.532" height="281.273" viewBox="0 0 240.532 281.273"><defs><filter id="a" x="13" y="0" width="214.811" height="241.213" filterUnits="userSpaceOnUse"><feOffset dy="-1" input="SourceAlpha"/><feGaussianBlur stdDeviation="5" result="b"/><feFlood flood-opacity="0.278"/><feComposite operator="in" in2="b"/><feComposite in="SourceGraphic"/></filter></defs><g transform="translate(-965 -171)"><circle cx="120.266" cy="120.266" r="120.266" transform="translate(965 199.572)" fill="#f6f6f7"/><g transform="translate(993 187)"><g transform="matrix(1, 0, 0, 1, -28, -16)" filter="url(#a)"><path d="M10,0H174.811a10,10,0,0,1,10,10V211.213a0,0,0,0,1,0,0H0a0,0,0,0,1,0,0V10A10,10,0,0,1,10,0Z" transform="translate(28 16)" fill="#f6f6f7"/></g><path d="M0,0H184.811a0,0,0,0,1,0,0V110.693a10,10,0,0,1-10,10H10a10,10,0,0,1-10-10V0A0,0,0,0,1,0,0Z" transform="translate(0 144.58)" fill="#fff"/><path d="M88.005,3H0A3,3,0,0,1-3,0,3,3,0,0,1,0-3H88.005a3,3,0,0,1,3,3A3,3,0,0,1,88.005,3Z" transform="translate(16.972 160.296)" fill="#e8e8e8"/><path d="M51.546,6H0A6,6,0,0,1-6,0,6,6,0,0,1,0-6H51.546a6,6,0,0,1,6,6A6,6,0,0,1,51.546,6Z" transform="translate(19.487 186.697)" fill="#6991e2"/></g><g transform="translate(0)"><path d="M81.785,240.642a19.979,19.979,0,0,1,3.656-.827c2.97-.122,5.949-.067,8.923-.032,2.123.026,3.112.97,3.119,3.082q.044,14.357,0,28.715c-.005,2.238-.981,3.2-3.2,3.226-3.168.04-6.341.1-9.5-.031a10.831,10.831,0,0,1-3-1.056Z" transform="translate(957.215 23.625)" fill="#6e6e6e"/><path d="M134.872,256.325c0-3.694.039-7.389-.024-11.083a1.755,1.755,0,0,1,1.415-2.074c4.137-1.3,8.217-2.771,12.344-4.1a13.253,13.253,0,0,1,10.387.766c5.249,2.67,10.468,5.4,15.691,8.12,2.137,1.113,2.844,2.573,2.163,4.339-.626,1.623-2.2,2.286-4.391,1.835-4.691-.968-9.378-1.955-14.074-2.894a4.116,4.116,0,0,0-2.448-.1,3.616,3.616,0,0,0-1.729,2.222c-.2,1.383.833,2.182,2.213,2.463,4.82.984,9.626,2.036,14.453,2.981,6.555,1.283,9.863-1.04,11.115-7.625a1.9,1.9,0,0,1,1.04-1.14c6.043-2.493,12.093-4.97,18.174-7.367a4.748,4.748,0,0,1,4.532,8.295c-9.793,7.239-19.577,14.492-29.457,21.611a17.439,17.439,0,0,1-14.634,2.749c-8.451-1.944-16.881-3.983-25.333-5.925-1.086-.249-1.483-.66-1.462-1.8C134.915,263.843,134.872,260.084,134.872,256.325Z" transform="translate(924.802 24.468)" fill="#6e6e6e"/><path d="M220.4,173.244A23.42,23.42,0,1,1,243.951,150.4,23.442,23.442,0,0,1,220.4,173.244Zm-1.88-35.468c-.509.111-.76.156-1,.22-3.868,1.017-6.091,4.015-5.686,7.662.4,3.625,3.471,6.181,7.464,6.214,1.036.009,2.076-.043,3.108.021a2.826,2.826,0,0,1,2.825,2.856,2.91,2.91,0,0,1-2.736,2.976,17.947,17.947,0,0,1-3.877-.044c-.76-.112-1.869-.555-2.093-1.132-.975-2.51-2.818-1.754-4.753-1.6.438,4.192,2.91,6.236,6.811,6.957v3.822H222.6v-3.828c.373-.112.61-.191.851-.255,4.012-1.064,6.218-4.037,5.764-7.771-.437-3.588-3.509-6.067-7.568-6.105-.972-.009-1.945.025-2.914-.028a2.864,2.864,0,0,1-2.909-2.78,2.818,2.818,0,0,1,2.68-3,17.718,17.718,0,0,1,4.069.006c.747.107,1.835.632,2.043,1.223.9,2.579,2.8,1.534,4.628,1.583-.283-4.3-2.907-6.2-6.774-7.084v-3.828h-3.957Z" transform="translate(886.775 92.857)" fill="#6991e2"/><path d="M241.541,149.485v-3.914H245.5V149.4c3.867.886,6.491,2.779,6.774,7.084-1.829-.049-3.724,1-4.628-1.583-.208-.591-1.3-1.116-2.043-1.223a17.72,17.72,0,0,0-4.069-.006,2.818,2.818,0,0,0-2.68,3,2.864,2.864,0,0,0,2.909,2.78c.969.053,1.943.019,2.914.028,4.059.038,7.131,2.517,7.568,6.105.454,3.734-1.753,6.708-5.764,7.771-.241.064-.478.143-.851.255v3.828H241.6V173.62c-3.9-.721-6.373-2.765-6.811-6.957,1.934-.159,3.778-.915,4.752,1.6.224.577,1.333,1.02,2.093,1.132a17.948,17.948,0,0,0,3.877.044,2.91,2.91,0,0,0,2.736-2.976,2.826,2.826,0,0,0-2.825-2.856c-1.033-.063-2.072-.012-3.108-.021-3.993-.034-7.06-2.59-7.464-6.214-.405-3.648,1.818-6.645,5.686-7.662C240.782,149.64,241.032,149.6,241.541,149.485Z" transform="translate(863.749 81.149)" fill="#fcfdfd"/></g></g></svg>